<svg version="1" xmlns="http://www.w3.org/2000/svg" width="138.667" height="138.667" viewBox="0 0 104.000000 104.000000"><path d="M44.3 2.6c-8 3-19.6 5.4-27.3 5.5l-6.1.2.3 27.6.3 27.6 3.4 6.9c2.4 5 5.7 9.3 11.5 15.1 8.2 8.3 22.4 18 25.8 17.8 2.4-.2 23.1-15.7 29.1-21.9C87 75.6 90.6 68.6 91.9 61c.5-3 .9-16.1.8-29-.2-22.7-.3-23.5-2.2-23.6-11.5-.6-19.4-2-28.3-4.9C56.5 1.6 51.5.1 51.2.1c-.4.1-3.5 1.2-6.9 2.5zm28.1 16.8c-.2 2.8-.3 5.7-.3 6.3-.1 1.5-4.8 5.8-9.1 8.4-2.8 1.7-3 1.7-3.9.1-.6-.9-1-1.3-1.1-.7 0 .5.4 1.6.9 2.4 1.2 1.8 4.4.7 8.7-3.1 4-3.6 4.1-3 1.8 7.5-3.9 17.4-9 33.9-9.1 29.5-.2-6.4-2.8-27.2-3.8-30.6-1.4-4.4-1-8.6.7-7.6 1.4.9-.6-2.7-3-5.2l-2-2.1 6-2.8c3.5-1.7 7.5-4.6 9.6-7.1 3.4-3.8 3.7-4 4.2-2.1.3 1.1.5 4.4.4 7.1zm-36.3-4.3c2.2 2.2 6.4 5.1 9.4 6.5l5.4 2.5-3.7 5.4c-2 3-4.4 5.4-5.3 5.5-.9 0-3.7-1.9-6.1-4.3l-4.6-4.2-.1-7.8c-.1-4.2.1-7.7.4-7.7.3 0 2.4 1.8 4.6 4.1zM42.7 37c.5 0 1.5-1.2 2.1-2.6.7-1.4 1.7-2.2 2.2-1.9 1.2.8 1.3 4.1.1 6.3-.9 1.8-1.4 4.8-3.1 21.2-.7 5.8-1.3 10.6-1.5 10.8-.6.7-8.3-28-9.9-37.1l-.7-3.8 4.9 3.6c2.7 1.9 5.4 3.5 5.9 3.5zM85 41.5c1.3 1.4 2.2 2.6 1.9 2.6-1.4.4-11.9.4-11.9 0 0-1.2 4.5-5.1 6-5.1.9 0 2.7 1.1 4 2.5z"/></svg>