<?xml version="1.0" standalone="no"?>
<!DOCTYPE svg PUBLIC "-//W3C//DTD SVG 20010904//EN"
 "http://www.w3.org/TR/2001/REC-SVG-20010904/DTD/svg10.dtd">
<svg version="1.0" xmlns="http://www.w3.org/2000/svg"
 width="104.000000pt" height="104.000000pt" viewBox="0 0 104.000000 104.000000"
 preserveAspectRatio="xMidYMid meet">
<metadata>
Created by potrace 1.11, written by Peter Selinger 2001-2013
</metadata>
<g transform="translate(0.000000,104.000000) scale(0.100000,-0.100000)"
fill="#000000" stroke="none">
<path d="M443 1014 c-80 -30 -196 -54 -273 -55 l-61 -2 3 -276 3 -276 34 -69
c24 -50 57 -93 115 -151 82 -83 224 -180 258 -178 24 2 231 157 291 219 57 58
93 128 106 204 5 30 9 161 8 290 -2 227 -3 235 -22 236 -115 6 -194 20 -283
49 -57 19 -107 34 -110 34 -4 -1 -35 -12 -69 -25z m281 -168 c-2 -28 -3 -57
-3 -63 -1 -15 -48 -58 -91 -84 -28 -17 -30 -17 -39 -1 -6 9 -10 13 -11 7 0 -5
4 -16 9 -24 12 -18 44 -7 87 31 40 36 41 30 18 -75 -39 -174 -90 -339 -91
-295 -2 64 -28 272 -38 306 -14 44 -10 86 7 76 14 -9 -6 27 -30 52 l-20 21 60
28 c35 17 75 46 96 71 34 38 37 40 42 21 3 -11 5 -44 4 -71z m-363 43 c22 -22
64 -51 94 -65 l54 -25 -37 -54 c-20 -30 -44 -54 -53 -55 -9 0 -37 19 -61 43
l-46 42 -1 78 c-1 42 1 77 4 77 3 0 24 -18 46 -41z m66 -219 c5 0 15 12 21 26
7 14 17 22 22 19 12 -8 13 -41 1 -63 -9 -18 -14 -48 -31 -212 -7 -58 -13 -106
-15 -108 -6 -7 -83 280 -99 371 l-7 38 49 -36 c27 -19 54 -35 59 -35z m423
-45 c13 -14 22 -26 19 -26 -14 -4 -119 -4 -119 0 0 12 45 51 60 51 9 0 27 -11
40 -25z"/>
</g>
</svg>
